# xmcd
#
# Track frame offsets:
#	150
#	37947
#	69567
#	111425
#	183823
#	210389
#	238769
#
# Disc length: 3891 seconds
#
# Revision: 0
# Processed by: cddbd v1.5.2PL0 Copyright (c) Steve Scherf et al.
# Submitted via: EasyCDDAExtractor 10.0.3.1
#
DISCID=590f3107
DTITLE=Mike Bloomfield and Nick Gravenites - Live at the Pipeline Tavern in Se
DTITLE=attle [CD2]
DYEAR=1976
DGENRE=Blues
TTITLE0=My Labors
TTITLE1=Six Weeks In Reno
TTITLE2=Its About Time
TTITLE3=Your Friends
TTITLE4=Do Your Work At Night
TTITLE5=Gypsy Good Time
TTITLE6=Goodnight Irene
EXTD=
EXTT0=
EXTT1=
EXTT2=
EXTT3=
EXTT4=
EXTT5=
EXTT6=
PLAYORDER=
